<?xml version="1.0" encoding="iso-8859-1"?>
<!-- Uploaded to: SVG Repo, www.svgrepo.com, Generator: SVG Repo Mixer Tools -->
<!DOCTYPE svg PUBLIC "-//W3C//DTD SVG 1.1//EN" "http://www.w3.org/Graphics/SVG/1.1/DTD/svg11.dtd">
<svg fill="#000000" version="1.1" id="Capa_1" xmlns="http://www.w3.org/2000/svg" xmlns:xlink="http://www.w3.org/1999/xlink" 
	 width="800px" height="800px" viewBox="0 0 97.75 97.75" xml:space="preserve"
	>
<g>
	<path d="M48.875,0C21.882,0,0,21.882,0,48.875S21.882,97.75,48.875,97.75S97.75,75.868,97.75,48.875S75.868,0,48.875,0z
		 M72.122,51.562c-3.612,6.774-8.938,11.558-16.464,13.633c-2.764,0.763-5.59,0.902-8.438,0.686
		c-0.821-0.062-1.641-0.156-2.462-0.213l-0.386-0.049l-0.017-20.266c0.841,0.44,1.687,0.944,2.525,1.262
		c2.949,1.119,6.288-0.127,8.003-3.043c3.025-5.147-0.85-10.497-5.706-10.721c-2.184-0.101-4.131,0.404-5.582,2.158
		c-0.939,1.133-1.462,2.479-1.67,3.915c-0.192,1.317-0.33,2.656-0.333,3.985l0.011,40.321l-18.557-0.002l-0.035-40.513
		c-0.002-3.699,0.316-7.35,1.451-10.892c2.363-7.381,7.219-12.449,14.35-15.385c2.911-1.198,5.938-1.87,9.095-1.913
		c10.278-0.142,18.133,4.181,23.526,12.897c2.2,3.555,3.139,7.524,3.281,11.686C74.867,43.471,74.188,47.689,72.122,51.562z"/>
</g>
</svg>